<?xml version="1.0" standalone="no"?>
<!DOCTYPE svg PUBLIC "-//W3C//DTD SVG 20010904//EN"
 "http://www.w3.org/TR/2001/REC-SVG-20010904/DTD/svg10.dtd">
<svg version="1.0" xmlns="http://www.w3.org/2000/svg"
 width="128.000000pt" height="128.000000pt" viewBox="0 0 128.000000 128.000000"
 preserveAspectRatio="xMidYMid meet">
<metadata>
Created by potrace 1.16, written by Peter Selinger 2001-2019
</metadata>
<g transform="translate(0.000000,128.000000) scale(0.100000,-0.100000)"
fill="#000000" stroke="none">
<path d="M608 1220 c-79 -20 -152 -67 -234 -152 -135 -138 -179 -255 -172
-454 l4 -111 -47 -17 c-57 -20 -134 -101 -149 -157 -24 -88 52 -198 163 -235
65 -21 125 -21 217 1 l75 18 63 -32 c163 -82 380 -59 519 56 57 46 146 164
176 233 43 99 52 149 52 285 0 110 -4 140 -23 197 -50 145 -155 262 -297 330
-82 39 -90 41 -198 44 -61 2 -129 -1 -149 -6z m255 -70 c29 -11 72 -34 95 -50
37 -28 40 -33 31 -57 -7 -20 -6 -31 6 -47 112 -152 140 -227 140 -381 0 -89
-5 -123 -23 -177 -70 -203 -246 -318 -440 -288 -62 10 -149 47 -184 78 -16 13
-24 12 -80 -13 -112 -50 -225 -35 -300 40 -59 58 -45 91 40 100 72 7 117 30
142 70 18 29 18 34 4 81 -22 74 -28 180 -14 262 31 188 192 366 360 402 61 12
160 3 223 -20z"/>
<path d="M831 995 c28 -9 58 -29 80 -52 31 -34 33 -42 29 -83 -5 -45 -27 -67
-87 -85 -33 -9 -30 22 7 73 70 97 4 160 -108 103 -22 -11 -44 -26 -47 -31 -4
-6 10 -2 31 9 52 28 100 36 119 21 22 -19 18 -58 -10 -91 -23 -29 -43 -94 -32
-106 9 -8 130 25 139 39 4 7 8 32 8 54 0 25 6 47 15 54 22 19 19 39 -6 33 -14
-4 -25 1 -36 17 -19 26 -88 60 -123 59 -18 0 -12 -5 21 -14z"/>
<path d="M536 757 c-61 -79 -102 -220 -90 -310 14 -106 77 -146 180 -113 44
14 72 33 134 92 43 41 95 99 116 129 20 30 39 53 42 50 9 -8 -19 -100 -43
-140 -31 -54 -115 -131 -168 -155 -154 -71 -351 69 -334 236 3 31 2 54 -4 54
-22 0 -14 -132 12 -181 25 -50 101 -114 156 -133 108 -37 203 -16 284 61 65
62 105 145 111 229 4 71 -19 70 -67 -3 -52 -79 -160 -185 -216 -211 -25 -12
-63 -22 -85 -22 -69 1 -94 36 -94 136 0 81 20 156 65 247 19 37 32 67 30 67
-2 0 -15 -15 -29 -33z"/>
</g>
</svg>
