<?xml version="1.0" standalone="no"?>
<!DOCTYPE svg PUBLIC "-//W3C//DTD SVG 20010904//EN"
 "http://www.w3.org/TR/2001/REC-SVG-20010904/DTD/svg10.dtd">
<svg version="1.0" xmlns="http://www.w3.org/2000/svg"
 width="820.000000pt" height="860.000000pt" viewBox="0 0 820.000000 860.000000"
 preserveAspectRatio="xMidYMid meet">

<g transform="translate(0.000000,860.000000) scale(0.100000,-0.100000)"
fill="#000000" stroke="none">
<path d="M3790 8189 c-807 -66 -1564 -367 -2200 -875 -173 -138 -466 -431
-604 -604 -762 -953 -1048 -2161 -795 -3354 126 -598 400 -1172 795 -1666 138
-173 431 -466 604 -604 953 -762 2161 -1048 3354 -795 598 126 1172 400 1666
795 173 138 466 431 604 604 762 953 1048 2161 795 3354 -126 598 -400 1172
-795 1666 -138 173 -431 466 -604 604 -643 514 -1397 812 -2219 876 -155 12
-447 11 -601 -1z m587 -1588 c192 -40 394 -126 548 -236 106 -75 261 -230 336
-335 113 -157 198 -354 241 -553 17 -83 21 -135 21 -277 0 -142 -4 -194 -21
-277 -62 -289 -194 -532 -399 -735 -206 -203 -440 -328 -726 -390 -146 -31
-408 -31 -554 0 -286 62 -520 187 -726 390 -205 203 -337 446 -399 735 -31
146 -31 408 0 554 43 199 128 396 241 553 75 105 230 260 336 335 185 132 428
226 661 255 108 14 326 4 441 -19z m23 -3276 c457 -53 862 -203 1232 -457 412
-283 756 -695 953 -1145 l27 -61 -71 -67 c-478 -451 -1082 -763 -1729 -894
-262 -53 -397 -66 -712 -66 -315 0 -450 13 -712 66 -647 131 -1251 443 -1729
894 l-71 67 27 61 c197 450 541 862 953 1145 366 250 772 403 1222 457 147 18
459 18 610 0z"/>
</g>
</svg>
